HIERARCHY
ROOT Hips
{
	OFFSET -218.283997 91.576897 -173.547501
	CHANNELS 6 Xposition Yposition Zposition Zrotation Yrotation Xrotation 
	JOINT LeftUpLeg
	{
		OFFSET 0.103458 1.857835 10.548497
		CHANNELS 3 Zrotation Yrotation Xrotation
		JOINT LeftLeg
		{
			OFFSET 43.500000 -0.000034 -0.000013
			CHANNELS 3 Zrotation Yrotation Xrotation
			JOINT LeftFoot
			{
				OFFSET 42.372192 0.000011 0.000010
				CHANNELS 3 Zrotation Yrotation Xrotation
				JOINT LeftToe
				{
					OFFSET 17.299994 -0.000002 -0.000009
					CHANNELS 3 Zrotation Yrotation Xrotation
					End Site
					{
						OFFSET 0.000000 0.000000 0.000000
					}
				}
			}
		}
	}
	JOINT RightUpLeg
	{
		OFFSET 0.103456 1.857832 -10.548508
		CHANNELS 3 Zrotation Yrotation Xrotation
		JOINT RightLeg
		{
			OFFSET 43.500038 -0.000027 0.000004
			CHANNELS 3 Zrotation Yrotation Xrotation
			JOINT RightFoot
			{
				OFFSET 42.372261 -0.000011 0.000014
				CHANNELS 3 Zrotation Yrotation Xrotation
				JOINT RightToe
				{
					OFFSET 17.299995 -0.000004 0.000011
					CHANNELS 3 Zrotation Yrotation Xrotation
					End Site
					{
						OFFSET 0.000000 0.000000 0.000000
					}
				}
			}
		}
	}
	JOINT Spine
	{
		OFFSET 6.901970 -2.603727 -0.000002
		CHANNELS 3 Zrotation Yrotation Xrotation
		JOINT Spine1
		{
			OFFSET 12.588097 -0.000001 0.000008
			CHANNELS 3 Zrotation Yrotation Xrotation
			JOINT Spine2
			{
				OFFSET 12.343203 0.000000 -0.000005
				CHANNELS 3 Zrotation Yrotation Xrotation
				JOINT Neck
				{
					OFFSET 25.832903 -0.000002 -0.000005
					CHANNELS 3 Zrotation Yrotation Xrotation
					JOINT Head
					{
						OFFSET 11.766603 0.000011 -0.000000
						CHANNELS 3 Zrotation Yrotation Xrotation
						End Site
						{
							OFFSET 0.000000 0.000000 0.000000
						}
					}
				}
				JOINT LeftShoulder
				{
					OFFSET 19.745899 -1.480377 6.000100
					CHANNELS 3 Zrotation Yrotation Xrotation
					JOINT LeftArm
					{
						OFFSET 11.284134 -0.000021 -0.000017
						CHANNELS 3 Zrotation Yrotation Xrotation
						JOINT LeftForeArm
						{
							OFFSET 33.000053 0.000002 0.000032
							CHANNELS 3 Zrotation Yrotation Xrotation
							JOINT LeftHand
							{
								OFFSET 25.200005 0.000020 0.000008
								CHANNELS 3 Zrotation Yrotation Xrotation
								End Site
								{
									OFFSET 0.000000 0.000000 0.000000
								}
							}
						}
					}
				}
				JOINT RightShoulder
				{
					OFFSET 19.746092 -1.480377 -6.000073
					CHANNELS 3 Zrotation Yrotation Xrotation
					JOINT RightArm
					{
						OFFSET 11.284133 -0.000016 -0.000019
						CHANNELS 3 Zrotation Yrotation Xrotation
						JOINT RightForeArm
						{
							OFFSET 33.000092 0.000022 0.000006
							CHANNELS 3 Zrotation Yrotation Xrotation
							JOINT RightHand
							{
								OFFSET 25.199783 0.000138 0.000434
								CHANNELS 3 Zrotation Yrotation Xrotation
								End Site
								{
									OFFSET 0.000000 0.000000 0.000000
								}
							}
						}
					}
				}
			}
		}
	}
}
MOTION
Frames: 14
Frame Time: 0.033333
224.396896 83.404869 -477.865601 87.117731 -0.797449 29.462905 143.801259 -11.346609 177.374371 -29.124155 -3.191324 -3.414548 77.392436 0.552325 -7.218314 21.454551 0.003093 0.000000 173.622261 0.531094 -170.765043 -48.801070 -2.286438 -0.005551 105.098498 0.163329 2.843837 21.454562 -0.003113 -0.000018 13.354381 -0.319917 0.892338 16.690506 -0.765367 1.729093 16.372525 -0.754782 1.733695 2.813519 7.583606 4.218790 -37.553521 -9.018665 10.905055 -171.395797 -80.072036 -10.272951 -18.840464 58.728794 29.364554 -40.189069 -19.182311 1.735650 3.360938 -15.969095 -0.454161 159.202502 73.237687 -19.931303 -24.947374 -44.087515 -20.440186 -50.269448 22.994221 -2.325479 0.145160 2.877636 -17.734308 
221.964294 81.753090 -475.654907 86.076865 -1.408808 27.910764 142.703989 -12.716598 -179.095620 -23.120616 -3.381645 -4.280269 77.856602 1.033808 -7.834933 21.454557 0.003097 0.000001 175.080042 -0.052795 -172.256783 -51.692798 -2.475245 0.151343 107.395197 0.015778 3.598216 21.454562 -0.003110 -0.000017 13.632766 -0.418429 1.151448 17.243547 -1.003983 2.227587 16.925656 -0.990371 2.233611 2.474514 7.689912 4.539963 -38.315626 -8.775686 11.232341 -171.170606 -80.224281 -10.503045 -18.937966 58.712381 29.531429 -40.050976 -19.093599 1.726150 2.801643 -14.332833 -0.376450 156.971203 73.063626 -22.221961 -26.705895 -43.218473 -19.765207 -50.393604 23.109180 -2.337555 0.126191 1.278448 -19.699114 
219.524597 79.961311 -473.402100 85.350358 -1.804519 26.548319 141.599083 -13.498394 -175.154177 -19.245089 -3.467529 -4.831481 78.532941 1.596980 -7.334354 21.454553 0.003088 -0.000001 176.479056 -0.097706 -173.650470 -54.681139 -2.547051 0.265030 109.749802 -0.138341 4.418088 21.454558 -0.003110 -0.000017 13.904698 -0.630298 1.283076 17.782329 -1.450472 2.453985 17.464445 -1.435495 2.462710 1.773059 7.735738 4.954024 -38.821976 -8.272894 11.484160 -169.316537 -80.291715 -12.385998 -19.245958 58.522236 29.723440 -39.837918 -18.940021 1.710441 2.489175 -13.079623 -0.067077 155.028055 72.886048 -24.217909 -28.388334 -42.830105 -18.550121 -50.824746 23.165790 -2.356195 -0.021228 0.968393 -21.323477 
217.294403 78.259109 -471.203796 85.186263 -1.769031 25.210874 140.125839 -13.746995 -172.378484 -18.853479 -3.707990 -4.649452 77.171869 1.280138 -7.690720 21.454550 0.003086 -0.000002 177.465062 0.555496 -175.111953 -57.639092 -2.652829 0.394279 111.759298 -0.313314 5.183275 21.454558 -0.003105 -0.000017 14.129960 -1.016241 1.350450 18.225827 -2.232633 2.524108 17.907801 -2.217219 2.537553 1.254402 7.896745 5.215766 -39.253087 -7.771832 11.569309 -169.895642 -80.426400 -11.797960 -19.731776 58.085964 29.696703 -39.368517 -18.595368 1.675568 2.326413 -12.409113 -0.065895 152.958398 72.700745 -26.343469 -29.462858 -43.068400 -17.300680 -51.385607 23.495251 -2.398156 -0.334957 1.624063 -22.098613 
215.407806 76.799438 -469.162994 86.045371 -1.081834 24.415500 136.693887 -12.268800 -172.076289 -24.595788 -3.276476 -4.128945 67.693226 0.460038 -7.133890 21.454553 0.003096 0.000000 177.351094 2.055207 -176.390059 -60.995877 -2.922156 0.780128 112.818695 -0.611822 6.020080 21.454557 -0.003109 -0.000018 14.234562 -1.564077 1.162133 18.434105 -3.293344 2.060624 18.115668 -3.280709 2.080498 1.016507 7.568031 5.503598 -40.082965 -7.014453 11.460201 -170.927424 -80.546556 -10.750976 -20.313618 57.579048 29.687677 -38.726995 -18.354872 1.643221 2.009094 -12.012020 0.190304 151.106529 72.676997 -28.236419 -30.345185 -43.883077 -15.788602 -51.999374 23.641062 -2.429640 -0.439758 3.510554 -22.156691 
213.444199 75.231949 -466.989502 86.874132 -0.364062 24.553036 132.027803 -11.084904 -173.296775 -33.767878 -3.566065 -2.557346 63.520773 -1.190398 -7.718517 21.454551 0.003093 0.000000 177.059622 3.949997 -176.584514 -65.172804 -3.214797 0.716323 112.461599 -0.568754 6.664180 21.454555 -0.003105 -0.000019 14.471463 -2.141697 0.876648 18.917121 -4.397801 1.391725 18.598115 -4.389176 1.418314 0.110370 7.830962 5.542053 -40.719914 -6.801772 11.538478 -174.644904 -80.787443 -6.979980 -21.474456 56.182264 29.049969 -38.103703 -18.128002 1.612534 1.841673 -12.311083 1.252679 152.890670 72.358928 -26.432786 -31.748632 -44.620673 -13.359440 -52.912973 23.712491 -2.466958 -0.712642 5.498573 -22.129753 
211.445206 74.002167 -464.937988 87.874687 -0.359964 25.654332 127.788987 -10.674101 -177.440747 -41.682759 -2.627594 -0.070385 63.470701 -2.902661 -7.345354 21.454550 0.003097 0.000001 175.879980 5.120302 -176.244931 -69.796754 -3.436384 0.669883 108.826217 -0.343410 6.798309 21.454550 -0.003105 -0.000017 14.750502 -2.524500 0.660178 19.487713 -5.123946 0.885819 19.168275 -5.118370 0.916842 -1.106906 7.352052 5.161549 -41.612528 -6.234309 10.853288 176.540214 -80.913747 1.959966 -23.913594 53.733327 27.829319 -37.005808 -17.902390 1.570507 1.843362 -13.073701 1.827236 152.565608 71.920594 -26.790968 -32.115157 -45.813084 -10.312196 -54.053687 23.899242 -2.521020 -0.923266 8.315717 -21.641352 
209.593201 73.432022 -462.961212 88.980399 -0.188598 25.997471 125.290873 -10.503908 179.125891 -47.441234 -2.053579 1.725118 65.395933 -2.920444 -4.341815 21.454551 0.003095 0.000001 173.495834 6.308194 -177.179724 -75.145550 -3.392534 0.779529 102.657101 -0.037881 6.878820 21.454558 -0.003107 -0.000019 15.066448 -2.908497 0.621280 20.127803 -5.880480 0.727061 19.807895 -5.875855 0.762701 -2.775802 6.169079 4.608696 -42.424060 -5.841482 9.945720 172.069814 -80.370891 6.509045 -28.034916 50.646491 25.605686 -35.416720 -17.188550 1.486242 2.110721 -14.381108 1.412312 151.033009 71.753562 -28.367931 -32.578626 -46.498927 -8.404906 -53.972561 24.206091 -2.539362 -1.491208 11.864668 -18.579320 
207.941299 73.158928 -461.160614 90.365015 -0.421613 26.668018 123.033372 -9.669006 179.035541 -51.839657 -2.691262 1.925993 68.325114 -2.118465 -2.124494 21.454551 0.003091 -0.000000 169.455600 7.682295 -177.477821 -81.484293 -3.574038 0.161188 94.835414 0.949629 7.638906 21.454551 -0.003107 -0.000016 15.254104 -3.232928 0.500762 20.516462 -6.503145 0.419744 20.196121 -6.500366 0.459192 -2.902355 5.682075 4.304098 -43.697201 -5.040547 9.110192 168.279291 -80.374203 10.354019 -31.431141 48.285360 22.820053 -33.964369 -16.939690 1.436976 1.710275 -15.483667 1.470241 149.597003 71.614691 -29.844242 -34.339210 -46.513568 -7.812624 -51.855404 24.462022 -2.481123 -0.837559 14.814656 -13.226732 
206.462494 73.272270 -459.546112 92.157099 -1.038358 27.432200 121.085689 -8.785511 178.843599 -54.566320 -3.091109 2.046110 70.629634 -1.656858 -0.702589 21.454553 0.003091 -0.000000 164.058644 8.864303 -178.057240 -87.767255 -3.245362 0.121031 87.915531 1.409446 7.434885 21.454558 -0.003109 -0.000017 15.352580 -3.498420 0.392411 20.726557 -7.010244 0.150552 20.405846 -7.009072 0.193110 -2.787247 5.592106 4.100819 -45.187657 -4.592623 8.684469 161.884431 -80.761263 16.819949 -34.004435 46.762672 18.944419 -33.673884 -17.391154 1.459568 2.088705 -16.258254 2.894021 147.848706 72.275723 -31.587316 -36.707066 -46.533604 -6.881119 -50.403203 24.452147 -2.429734 0.215599 15.059502 -11.188555 
205.088898 73.447838 -458.155701 93.344808 -1.904042 28.163213 119.590889 -8.244091 177.972054 -56.904618 -2.500185 2.528084 72.648829 -1.673183 0.298067 21.454553 0.003095 0.000001 159.313411 9.217501 -177.725525 -93.221489 -3.300506 1.277931 85.981925 0.430144 5.795911 21.454558 -0.003109 -0.000016 15.588660 -3.615014 0.336922 21.206706 -7.230238 0.004000 20.885832 -7.229938 0.047906 -3.294266 5.739540 3.900861 -46.291368 -4.457968 8.518156 155.106438 -80.959885 23.671011 -35.992392 44.932987 15.570477 -34.423730 -17.796292 1.502525 2.572990 -18.875031 2.002371 145.008208 72.232071 -34.487497 -37.823778 -45.494582 -5.550224 -50.560124 24.321706 -2.426193 1.436921 11.880573 -13.043621 
204.040695 73.236320 -457.108704 94.432256 -2.320067 29.118865 118.053755 -7.259699 177.807542 -59.134022 -2.369387 2.652774 74.335667 -1.614319 0.801047 21.454553 0.003092 0.000000 155.372091 9.986606 -176.838775 -97.725042 -3.370972 1.603077 91.365924 0.246150 7.798281 21.454555 -0.003109 -0.000017 15.934015 -3.711632 0.195631 21.911305 -7.392899 -0.317370 21.590308 -7.394535 -0.272454 -4.488643 5.411599 3.570232 -46.790296 -4.025890 7.882215 150.255624 -81.209406 28.561049 -38.129483 42.667963 12.978524 -35.421020 -18.047134 1.541778 3.178539 -21.794444 -0.753364 144.227203 72.048660 -35.296321 -39.076055 -43.250097 -4.766800 -51.259798 24.309232 -2.449654 1.941350 7.985659 -16.252246 
202.998505 73.121529 -456.168091 95.505668 -3.079467 29.967991 116.509831 -6.714096 177.794988 -61.080428 -2.459363 2.879037 75.908161 -1.581815 1.475047 21.454555 0.003091 0.000000 151.106556 10.325804 -176.037894 -100.398918 -3.183905 0.360398 94.987577 0.772032 7.108698 21.454557 -0.003107 -0.000019 16.208676 -3.721222 0.116497 22.467578 -7.394004 -0.494289 22.146586 -7.396728 -0.449361 -5.575622 4.873968 3.225097 -47.202833 -3.583384 7.149305 146.605626 -81.519899 32.228009 -40.233789 40.523447 10.584821 -36.252090 -18.232287 1.573525 2.918536 -24.304822 -2.819510 142.079095 72.238116 -37.471743 -40.477361 -41.235771 -3.984226 -51.721164 24.541722 -2.481888 1.375165 5.854299 -18.517698 
202.108994 72.892242 -455.359894 96.742936 -3.652205 30.733560 114.908698 -6.207594 177.354400 -62.878865 -2.518528 3.185586 77.316095 -1.621874 2.148677 21.454550 0.003089 -0.000001 146.710865 10.866699 -175.173602 -101.786594 -3.025695 -0.967127 98.074666 1.576157 8.198738 21.454560 -0.003109 -0.000017 16.421084 -3.762475 0.006978 22.902090 -7.451728 -0.733853 22.581068 -7.455892 -0.688562 -6.169994 4.760088 2.928296 -47.730144 -3.360797 6.704283 143.430120 -81.709444 35.420111 -41.715736 38.437829 8.874586 -36.795028 -18.591602 1.609983 2.097351 -25.714402 -3.607114 139.124997 72.327209 -40.471890 -41.538844 -39.138842 -3.314318 -52.144502 24.545092 -2.497111 0.948236 6.068912 -19.001779 
